M48
;DRILL file {KiCad (2016-09-24 revision 9490b02)-master} date Sunday, September 25, 2016 'PMt' 10:52:29 PM
;FORMAT={-:-/ absolute / inch / decimal}
FMAT,2
INCH,TZ
T1C0.013
T2C0.026
T3C0.031
T4C0.032
T5C0.039
T6C0.040
T7C0.051
%
G90
G05
M72
T1
X2.0845Y-2.793
X2.0875Y-2.7525
X2.0955Y-3.3435
X2.097Y-3.311
X2.127Y-2.7525
X2.127Y-2.793
X2.1375Y-3.272
X2.1375Y-3.312
X2.1375Y-3.3435
X2.14Y-3.233
X2.1735Y-2.793
X2.1735Y-3.343
X2.1745Y-2.7525
X2.175Y-3.272
X2.175Y-3.311
X2.1755Y-3.2325
X2.215Y-2.793
X2.216Y-2.706
X2.216Y-2.7525
X2.2195Y-3.3105
X2.22Y-3.3415
X2.2205Y-3.268
X2.2215Y-3.225
X2.257Y-3.27
X2.257Y-3.311
X2.257Y-3.343
X2.2575Y-3.2275
X2.265Y-4.4025
X2.2675Y-4.151
X2.275Y-4.5025
X2.275Y-4.53
X2.2765Y-2.656
X2.2865Y-1.631
X2.287Y-1.882
X2.287Y-2.3965
X2.2875Y-2.144
X2.289Y-3.3095
X2.289Y-3.343
X2.2895Y-3.271
X2.2905Y-3.2365
X2.295Y-4.375
X2.295Y-4.4025
X2.2955Y-4.1225
X2.2955Y-4.1505
X2.307Y-2.5605
X2.313Y-1.6005
X2.313Y-1.6305
X2.3135Y-2.1155
X2.314Y-1.8815
X2.314Y-2.367
X2.314Y-2.3945
X2.3145Y-1.852
X2.3155Y-2.144
X2.342Y-2.528
X2.37Y-3.74
X2.379Y-2.5625
X2.41Y-2.5975
X2.441Y-2.5685
X2.45Y-2.965
X2.45Y-3.
X2.45Y-3.03
X2.45Y-3.06
X2.45Y-3.09
X2.45Y-3.12
X2.45Y-3.15
X2.45Y-3.18
X2.45Y-3.21
X2.455Y-4.5025
X2.475Y-3.11
X2.48Y-2.98
X2.48Y-3.015
X2.483Y-4.5025
X2.483Y-4.53
X2.55Y-3.93
X2.575Y-2.6375
X2.575Y-2.6675
X2.575Y-2.6975
X2.575Y-2.7275
X2.58Y-2.7575
X2.62Y-3.46
X2.62Y-3.88
X2.713Y-4.4945
X2.7415Y-4.4945
X2.7415Y-4.5215
X2.797Y-3.893
X2.8302Y-3.5648
X2.863Y-3.5346
X2.8944Y-3.5144
X2.9259Y-3.4955
X2.9573Y-3.4729
X2.9775Y-4.5025
X3.005Y-4.5025
X3.005Y-4.5275
X3.034Y-4.1245
X3.0341Y-3.9704
X3.06Y-3.972
X3.06Y-4.11
X3.0855Y-3.972
X3.1038Y-4.3191
X3.1105Y-3.9715
X3.137Y-3.9824
X3.1721Y-4.3161
X3.2275Y-4.502
X3.258Y-4.502
X3.258Y-4.5275
X3.278Y-3.5544
X3.28Y-3.8375
X3.32Y-2.78
X3.36Y-4.011
X3.3744Y-3.9326
X3.4032Y-3.8359
X3.4925Y-4.4925
X3.52Y-4.4925
X3.52Y-4.5175
X3.5869Y-3.1042
X3.605Y-3.8775
X3.675Y-4.38
X3.6959Y-4.3618
X3.7014Y-4.3892
X3.7495Y-4.4945
X3.76Y-3.1042
T2
X3.3552Y-2.9949
X3.3552Y-3.5461
X3.434Y-2.9949
X3.434Y-3.5461
X3.5127Y-2.9949
X3.5127Y-3.5461
X3.5914Y-2.9949
X3.5914Y-3.5461
X3.6702Y-2.9949
X3.6702Y-3.5461
X3.7489Y-2.9949
X3.7489Y-3.5461
X3.8277Y-2.9949
X3.8277Y-3.5461
X3.9064Y-2.9949
X3.9064Y-3.5461
T3
X3.095Y-2.375
X3.095Y-2.675
X3.195Y-1.93
X3.195Y-2.1269
X3.195Y-2.375
X3.195Y-2.675
X3.295Y-2.375
X3.295Y-2.675
X3.55Y-2.375
X3.55Y-2.675
X3.65Y-2.375
X3.65Y-2.675
X3.75Y-2.375
X3.75Y-2.675
T4
X3.0325Y-3.6
X3.0325Y-3.7969
X3.1113Y-3.6
X3.1113Y-3.7969
X3.19Y-3.6
X3.19Y-3.7969
T5
X2.74Y-1.9425
X2.74Y-2.3425
X2.8975Y-1.93
X2.8975Y-2.33
X2.9475Y-1.67
X3.105Y-1.67
X3.2625Y-1.67
X3.45Y-1.85
X3.45Y-2.25
T6
X2.122Y-4.0815
X2.122Y-4.1815
X2.122Y-4.3365
X2.122Y-4.4365
X2.136Y-1.5665
X2.136Y-1.6665
X2.136Y-1.8215
X2.136Y-1.9215
X2.136Y-2.0765
X2.136Y-2.1765
X2.136Y-2.3315
X2.136Y-2.4315
X2.136Y-2.5865
X2.136Y-2.6865
X2.1675Y-4.67
X2.215Y-3.46
X2.215Y-3.56
X2.2675Y-4.67
X2.4225Y-4.67
X2.5225Y-4.67
X2.6755Y-4.668
X2.7755Y-4.668
X2.9335Y-4.669
X3.0335Y-4.669
X3.0825Y-2.995
X3.0825Y-3.095
X3.0825Y-3.195
X3.0825Y-3.295
X3.0825Y-3.395
X3.0825Y-3.495
X3.1925Y-4.672
X3.2925Y-4.672
X3.4535Y-4.67
X3.5535Y-4.67
X3.7145Y-4.668
X3.725Y-3.77
X3.725Y-3.87
X3.725Y-3.97
X3.725Y-4.07
X3.725Y-4.17
X3.725Y-4.27
X3.8145Y-4.668
X3.8633Y-4.3433
X3.8633Y-4.4433
T7
X2.15Y-2.9131
X2.15Y-3.11
X2.5725Y-1.6875
X2.7694Y-1.6875
X3.66Y-1.685
X3.8569Y-1.685
T0
M30
